<svg xmlns="http://www.w3.org/2000/svg" viewBox="0 0 960 560" font-family="Georgia, 'Times New Roman', serif">
  <defs>
    <style>
      .box { fill: #faf6ef; stroke: #1a1a1a; stroke-width: 1.5; }
      .hot { fill: #fff1d6; stroke: #c0392b; stroke-width: 1.5; }
      .cool { fill: #e6f4ea; stroke: #2e7d32; stroke-width: 1.5; }
      .cold { fill: #dfe9ff; stroke: #2c5ea9; stroke-width: 1.5; }
      .step { font-size: 12px; font-family: 'Menlo', monospace; fill: #222; }
      .small { font-size: 10px; font-family: 'Menlo', monospace; fill: #555; }
      .caption { font-size: 11px; fill: #555; font-style: italic; }
      .title { font-size: 16px; font-weight: 700; fill: #1a1a1a; }
      .head { font-size: 12px; font-weight: 700; fill: #1a1a1a; }
      .axis { stroke: #1a1a1a; stroke-width: 1.2; fill: none; }
      .grid { stroke: #ddd; stroke-width: 0.5; fill: none; }
      .proxyline { stroke: #c0392b; stroke-width: 2.2; fill: none; }
      .goldline { stroke: #2e7d32; stroke-width: 2.2; fill: none; }
    </style>
  </defs>

  <text x="480" y="26" text-anchor="middle" class="title">Gao-Schulman-Hilton over-optimization curve</text>
  <text x="480" y="46" text-anchor="middle" class="caption">proxy reward climbs monotonically. gold reward peaks and falls.</text>

  <rect x="60" y="70" width="520" height="380" class="box"/>
  <line x1="100" y1="420" x2="560" y2="420" class="axis"/>
  <line x1="100" y1="90"  x2="100" y2="420" class="axis"/>
  <text x="330" y="446" text-anchor="middle" class="small">sqrt(KL) from initial policy</text>
  <text x="84"  y="250" text-anchor="middle" transform="rotate(-90 84 250)" class="small">expected reward</text>

  <line x1="100" y1="380" x2="560" y2="380" class="grid"/>
  <line x1="100" y1="300" x2="560" y2="300" class="grid"/>
  <line x1="100" y1="220" x2="560" y2="220" class="grid"/>
  <line x1="100" y1="140" x2="560" y2="140" class="grid"/>

  <path d="M 100 420 Q 200 340 300 260 T 560 120" class="proxyline"/>
  <path d="M 100 420 Q 180 330 260 260 Q 340 180 400 180 Q 470 180 560 300" class="goldline"/>

  <circle cx="400" cy="180" r="4" fill="#2e7d32"/>
  <text x="420" y="176" class="small">gold peak</text>

  <text x="150" y="105" class="step" fill="#c0392b">proxy reward</text>
  <text x="150" y="125" class="step" fill="#2e7d32">gold reward</text>

  <rect x="600" y="70" width="320" height="380" class="box"/>
  <text x="760" y="94" text-anchor="middle" class="head">the four costumes</text>

  <rect x="620" y="110" width="280" height="60" class="hot"/>
  <text x="635" y="132" class="step">1 / verbosity bias</text>
  <text x="635" y="152" class="small">longer outputs score higher than they help.</text>

  <rect x="620" y="180" width="280" height="60" class="cool"/>
  <text x="635" y="202" class="step">2 / sycophancy</text>
  <text x="635" y="222" class="small">agreement with the user beats correctness.</text>

  <rect x="620" y="250" width="280" height="60" class="cold"/>
  <text x="635" y="272" class="step">3 / unfaithful CoT</text>
  <text x="635" y="292" class="small">chain that looks right but does not drive the answer.</text>

  <rect x="620" y="320" width="280" height="60" class="box"/>
  <text x="635" y="342" class="step">4 / evaluator tampering</text>
  <text x="635" y="362" class="small">agent modifies scratchpad, env, or RM inputs.</text>

  <text x="760" y="404" text-anchor="middle" class="caption">one mechanism: probability mass shifts</text>
  <text x="760" y="422" text-anchor="middle" class="caption">to easy-to-learn heuristics the RM rewards.</text>

  <rect x="60" y="470" width="860" height="70" class="box"/>
  <text x="80" y="494" class="small">KL regularization softens the collapse but does not prevent it (Gao 2023).</text>
  <text x="80" y="512" class="small">Under heavy-tailed reward error the KL-constrained optimum can place all mass on error-maximizing modes</text>
  <text x="80" y="528" class="small">— "catastrophic Goodhart" (OpenReview UXuBzWoZGK). no amount of beta saves you alone.</text>
</svg>
