<svg xmlns="http://www.w3.org/2000/svg" viewBox="0 0 960 580" font-family="Georgia, 'Times New Roman', serif">
  <defs>
    <style>
      .box { fill: #faf6ef; stroke: #1a1a1a; stroke-width: 1.5; }
      .node { fill: #dfe9ff; stroke: #2c5ea9; stroke-width: 1.5; }
      .sched { fill: #fff1d6; stroke: #c0392b; stroke-width: 1.5; }
      .app { fill: #e6f4ea; stroke: #2e7d32; stroke-width: 1.5; }
      .bad { fill: #ffe1e1; stroke: #b71c1c; stroke-width: 1.5; }
      .title { font-size: 16px; font-weight: 700; fill: #1a1a1a; }
      .head { font-size: 12px; font-weight: 700; fill: #1a1a1a; }
      .step { font-size: 12px; font-family: 'Menlo', monospace; fill: #222; }
      .small { font-size: 10px; font-family: 'Menlo', monospace; fill: #555; }
      .caption { font-size: 11px; fill: #555; font-style: italic; }
    </style>
  </defs>
  <text x="480" y="24" text-anchor="middle" class="title">GPU autoscaling — three layers, not one</text>

  <rect x="40" y="50" width="280" height="480" class="box"/>
  <text x="180" y="72" text-anchor="middle" class="head">layer 1 — node provisioning</text>
  <rect x="60" y="90" width="240" height="70" class="node"/>
  <text x="180" y="112" text-anchor="middle" class="step">Karpenter</text>
  <text x="180" y="130" text-anchor="middle" class="small">provisions nodes on pending pods</text>
  <text x="180" y="146" text-anchor="middle" class="small">45-60s (vs CA 90-120s)</text>
  <rect x="60" y="170" width="240" height="90" class="bad"/>
  <text x="180" y="192" text-anchor="middle" class="step">consolidation trap</text>
  <text x="180" y="210" text-anchor="middle" class="small">WhenEmptyOrUnderutilized</text>
  <text x="180" y="226" text-anchor="middle" class="small">evicts running GPU jobs</text>
  <text x="180" y="244" text-anchor="middle" class="small">loses minutes of capacity</text>
  <rect x="60" y="270" width="240" height="100" class="node"/>
  <text x="180" y="292" text-anchor="middle" class="step">safe setting</text>
  <text x="180" y="310" text-anchor="middle" class="small">consolidationPolicy:</text>
  <text x="180" y="326" text-anchor="middle" class="small">WhenEmpty</text>
  <text x="180" y="342" text-anchor="middle" class="small">consolidateAfter: 1h</text>
  <text x="180" y="358" text-anchor="middle" class="small">taint GPU nodes</text>
  <text x="180" y="400" text-anchor="middle" class="caption">picks instance type dynamically</text>

  <rect x="340" y="50" width="280" height="480" class="box"/>
  <text x="480" y="72" text-anchor="middle" class="head">layer 2 — gang scheduling</text>
  <rect x="360" y="90" width="240" height="70" class="sched"/>
  <text x="480" y="112" text-anchor="middle" class="step">KAI Scheduler</text>
  <text x="480" y="130" text-anchor="middle" class="small">secondary to kube-scheduler</text>
  <text x="480" y="146" text-anchor="middle" class="small">annotate workloads to opt in</text>
  <rect x="360" y="170" width="240" height="100" class="sched"/>
  <text x="480" y="192" text-anchor="middle" class="step">gang scheduling</text>
  <text x="480" y="210" text-anchor="middle" class="small">all-or-nothing placement</text>
  <text x="480" y="226" text-anchor="middle" class="small">prevents 7-of-8 idle trap</text>
  <text x="480" y="244" text-anchor="middle" class="small">defer all if can't fit all</text>
  <rect x="360" y="280" width="240" height="80" class="sched"/>
  <text x="480" y="302" text-anchor="middle" class="step">topology awareness</text>
  <text x="480" y="320" text-anchor="middle" class="small">NVLink / IB / rack placement</text>
  <text x="480" y="336" text-anchor="middle" class="small">TP-8 stays on one NVLink domain</text>
  <rect x="360" y="370" width="240" height="90" class="sched"/>
  <text x="480" y="392" text-anchor="middle" class="step">hierarchical queues</text>
  <text x="480" y="410" text-anchor="middle" class="small">multi-team priority + quota</text>
  <text x="480" y="426" text-anchor="middle" class="small">preemption rules per queue</text>
  <text x="480" y="442" text-anchor="middle" class="small">Ray + vLLM production-stack integrate</text>

  <rect x="640" y="50" width="280" height="480" class="box"/>
  <text x="780" y="72" text-anchor="middle" class="head">layer 3 — application signals</text>
  <rect x="660" y="90" width="240" height="80" class="bad"/>
  <text x="780" y="112" text-anchor="middle" class="step">HPA trap</text>
  <text x="780" y="130" text-anchor="middle" class="small">DCGM_FI_DEV_GPU_UTIL</text>
  <text x="780" y="146" text-anchor="middle" class="small">duty-cycle, NOT load</text>
  <text x="780" y="162" text-anchor="middle" class="small">100% = 10 or 100 requests</text>
  <rect x="660" y="180" width="240" height="100" class="app"/>
  <text x="780" y="202" text-anchor="middle" class="step">correct signals</text>
  <text x="780" y="220" text-anchor="middle" class="small">queue depth</text>
  <text x="780" y="236" text-anchor="middle" class="small">KV cache utilization</text>
  <text x="780" y="252" text-anchor="middle" class="small">per-replica P99 TTFT</text>
  <text x="780" y="268" text-anchor="middle" class="small">goodput (SLO-meeting RPS)</text>
  <rect x="660" y="290" width="240" height="90" class="app"/>
  <text x="780" y="312" text-anchor="middle" class="step">Dynamo Planner</text>
  <text x="780" y="330" text-anchor="middle" class="small">scales on inference signals</text>
  <text x="780" y="346" text-anchor="middle" class="small">rate-matches prefill:decode ratio</text>
  <text x="780" y="362" text-anchor="middle" class="small">meets SLOs, not duty cycle</text>
  <rect x="660" y="390" width="240" height="90" class="app"/>
  <text x="780" y="412" text-anchor="middle" class="step">llm-d WVA</text>
  <text x="780" y="430" text-anchor="middle" class="small">Workload Variant Autoscaler</text>
  <text x="780" y="446" text-anchor="middle" class="small">disaggregated prefill + decode</text>
  <text x="780" y="462" text-anchor="middle" class="small">per-role HPA</text>

  <rect x="40" y="540" width="880" height="30" class="box"/>
  <text x="480" y="558" text-anchor="middle" class="step">compose all three — each alone is insufficient on a real GPU cluster</text>
</svg>
