<svg xmlns="http://www.w3.org/2000/svg" viewBox="0 0 960 540" font-family="Georgia, 'Times New Roman', serif">
  <defs>
    <marker id="arrow" viewBox="0 0 10 10" refX="9" refY="5" markerWidth="6" markerHeight="6" orient="auto">
      <path d="M0,0 L10,5 L0,10 z" fill="#1a1a1a"/>
    </marker>
    <style>
      .box { fill: #faf6ef; stroke: #1a1a1a; stroke-width: 1.5; }
      .hot { fill: #fff1d6; stroke: #c0392b; stroke-width: 1.5; }
      .cool { fill: #e6f4ea; stroke: #2e7d32; stroke-width: 1.5; }
      .cold { fill: #dfe9ff; stroke: #2c5ea9; stroke-width: 1.5; }
      .dsk { fill: #e9e6ff; stroke: #5a4fcf; stroke-width: 1.5; }
      .step { font-size: 12px; font-family: 'Menlo', monospace; fill: #222; }
      .small { font-size: 10px; font-family: 'Menlo', monospace; fill: #555; }
      .caption { font-size: 11px; fill: #555; font-style: italic; }
      .title { font-size: 16px; font-weight: 700; fill: #1a1a1a; }
      .head { font-size: 12px; font-weight: 700; fill: #1a1a1a; }
      .edge { stroke: #1a1a1a; stroke-width: 1.2; fill: none; }
      .dim { stroke: #aaa; stroke-width: 1; fill: none; }
    </style>
  </defs>

  <text x="480" y="26" text-anchor="middle" class="title">Tree of Thoughts and LATS — branching reasoning with self-evaluation</text>

  <rect x="40" y="60" width="440" height="460" class="box"/>
  <text x="260" y="84" text-anchor="middle" class="head">Tree of Thoughts (BFS, beam, or DFS)</text>

  <circle cx="260" cy="120" r="18" fill="#faf6ef" stroke="#1a1a1a" stroke-width="1.5"/>
  <text x="260" y="124" text-anchor="middle" class="step">root</text>

  <line x1="240" y1="135" x2="130" y2="180" class="edge"/>
  <line x1="260" y1="138" x2="260" y2="180" class="edge"/>
  <line x1="280" y1="135" x2="390" y2="180" class="edge"/>

  <rect x="80" y="180" width="120" height="38" class="cool"/>
  <text x="140" y="203" text-anchor="middle" class="small">6-4=2, score 0.2</text>

  <rect x="210" y="180" width="100" height="38" class="cold"/>
  <text x="260" y="203" text-anchor="middle" class="small">4+1=5, 0.1</text>

  <rect x="340" y="180" width="120" height="38" class="hot"/>
  <text x="400" y="203" text-anchor="middle" class="small">6*4=24, 0.95</text>

  <line x1="140" y1="218" x2="110" y2="260" class="dim"/>
  <line x1="140" y1="218" x2="170" y2="260" class="dim"/>
  <line x1="260" y1="218" x2="230" y2="260" class="dim"/>
  <line x1="260" y1="218" x2="290" y2="260" class="dim"/>
  <line x1="400" y1="218" x2="400" y2="270" class="edge"/>

  <rect x="360" y="270" width="100" height="38" class="hot"/>
  <text x="410" y="293" text-anchor="middle" class="small">done: 24</text>

  <text x="60" y="340" class="small">self-eval at each node picks the frontier.</text>
  <text x="60" y="356" class="small">"sure / likely / impossible" classification,</text>
  <text x="60" y="372" class="small">1..10 numeric score, or majority vote.</text>
  <text x="60" y="400" class="step">Game of 24: CoT 4%  -- ToT 74%</text>
  <text x="60" y="416" class="small">GPT-4 baseline vs ToT with beam-5, depth-3.</text>
  <text x="60" y="440" class="step">cost</text>
  <text x="60" y="456" class="small">100-1000x tokens of a single CoT trajectory.</text>
  <text x="60" y="472" class="small">reserve for tasks with weak single-shot success.</text>

  <rect x="500" y="60" width="420" height="460" class="box"/>
  <text x="710" y="84" text-anchor="middle" class="head">LATS = ToT + ReAct + Reflexion + MCTS</text>

  <rect x="520" y="100" width="380" height="50" class="cool"/>
  <text x="540" y="124" class="step">Select  walk root-to-leaf via UCT</text>
  <text x="540" y="142" class="small">Q(s,a) + c * sqrt(ln N(s) / N(s,a))</text>

  <rect x="520" y="160" width="380" height="50" class="cold"/>
  <text x="540" y="184" class="step">Expand  policy proposes K children</text>
  <text x="540" y="202" class="small">ReAct-style next-action candidates</text>

  <rect x="520" y="220" width="380" height="50" class="hot"/>
  <text x="540" y="244" class="step">Simulate  rollout + value function</text>
  <text x="540" y="262" class="small">score with prompted value + env reward</text>

  <rect x="520" y="280" width="380" height="50" class="dsk"/>
  <text x="540" y="304" class="step">Backpropagate  update visits and Q</text>
  <text x="540" y="322" class="small">on failure: write reflection, reseed rollouts</text>

  <rect x="520" y="340" width="380" height="170" class="box"/>
  <text x="710" y="364" text-anchor="middle" class="head">when to pick LATS</text>
  <text x="540" y="386" class="small">coding (tests as value function)</text>
  <text x="540" y="402" class="small">math/olympiad with checkable targets</text>
  <text x="540" y="418" class="small">deep research with multiple query paths</text>
  <text x="540" y="434" class="small">not for short Q&amp;A or chat</text>
  <text x="540" y="452" class="step">LATS HumanEval 92.7% pass@1 (GPT-4)</text>
  <text x="540" y="470" class="small">SOTA at paper time (ICML 2024)</text>
  <text x="540" y="494" class="small">evolutionary search (AlphaEvolve) is the 2025 extreme</text>
</svg>
