<svg xmlns="http://www.w3.org/2000/svg" viewBox="0 0 960 560" font-family="Georgia, 'Times New Roman', serif">
  <defs>
    <style>
      .box { fill: #faf6ef; stroke: #1a1a1a; stroke-width: 1.5; }
      .silicon { fill: #ffe1e1; stroke: #c0392b; stroke-width: 1.5; }
      .gpu { fill: #dfe9ff; stroke: #2c5ea9; stroke-width: 1.5; }
      .api { fill: #e6f4ea; stroke: #2e7d32; stroke-width: 1.5; }
      .title { font-size: 16px; font-weight: 700; fill: #1a1a1a; }
      .head { font-size: 12px; font-weight: 700; fill: #1a1a1a; }
      .step { font-size: 12px; font-family: 'Menlo', monospace; fill: #222; }
      .small { font-size: 10px; font-family: 'Menlo', monospace; fill: #555; }
      .caption { font-size: 11px; fill: #555; font-style: italic; }
    </style>
  </defs>
  <text x="480" y="24" text-anchor="middle" class="title">Inference platform map — three segments, six vendors</text>

  <rect x="40" y="50" width="280" height="460" class="box"/>
  <text x="180" y="72" text-anchor="middle" class="head">custom silicon</text>
  <rect x="60" y="90" width="240" height="60" class="silicon"/>
  <text x="180" y="110" text-anchor="middle" class="step">Groq (LPU)</text>
  <text x="180" y="128" text-anchor="middle" class="small">voice agents, real-time translation</text>
  <text x="180" y="144" text-anchor="middle" class="small">5-10x faster decode than GPU</text>
  <rect x="60" y="160" width="240" height="60" class="silicon"/>
  <text x="180" y="180" text-anchor="middle" class="step">Cerebras (WSE)</text>
  <text x="180" y="198" text-anchor="middle" class="small">wafer-scale engine</text>
  <text x="180" y="214" text-anchor="middle" class="small">very large context decode</text>
  <rect x="60" y="230" width="240" height="60" class="silicon"/>
  <text x="180" y="250" text-anchor="middle" class="step">SambaNova (RDU)</text>
  <text x="180" y="268" text-anchor="middle" class="small">reconfigurable dataflow</text>
  <text x="180" y="284" text-anchor="middle" class="small">enterprise regulated</text>
  <text x="180" y="330" text-anchor="middle" class="caption">pay premium per-token</text>
  <text x="180" y="346" text-anchor="middle" class="caption">win on latency SLAs</text>

  <rect x="340" y="50" width="280" height="460" class="box"/>
  <text x="480" y="72" text-anchor="middle" class="head">GPU platforms</text>
  <rect x="360" y="90" width="240" height="60" class="gpu"/>
  <text x="480" y="110" text-anchor="middle" class="step">Fireworks — latency</text>
  <text x="480" y="128" text-anchor="middle" class="small">FireAttention, $4B valn</text>
  <text x="480" y="144" text-anchor="middle" class="small">$1/hr GPU raise May 2026</text>
  <rect x="360" y="160" width="240" height="60" class="gpu"/>
  <text x="480" y="180" text-anchor="middle" class="step">Together — breadth</text>
  <text x="480" y="198" text-anchor="middle" class="small">200+ models, 50-70% under Replicate</text>
  <text x="480" y="214" text-anchor="middle" class="small">"AI Native Cloud"</text>
  <rect x="360" y="230" width="240" height="60" class="gpu"/>
  <text x="480" y="250" text-anchor="middle" class="step">Baseten — enterprise</text>
  <text x="480" y="268" text-anchor="middle" class="small">$5B valn Jan 2026, SOC2+HIPAA</text>
  <text x="480" y="284" text-anchor="middle" class="small">Truss, per-min billing</text>
  <rect x="360" y="300" width="240" height="60" class="gpu"/>
  <text x="480" y="320" text-anchor="middle" class="step">Modal — Python DX</text>
  <text x="480" y="338" text-anchor="middle" class="small">$1.1B valn, per-sec billing</text>
  <text x="480" y="354" text-anchor="middle" class="small">infrastructure-as-Python</text>
  <rect x="360" y="370" width="240" height="60" class="gpu"/>
  <text x="480" y="390" text-anchor="middle" class="step">Anyscale — Ray-native</text>
  <text x="480" y="408" text-anchor="middle" class="small">RayTurbo inference engine</text>
  <text x="480" y="424" text-anchor="middle" class="small">managed Ray clusters</text>

  <rect x="640" y="50" width="280" height="460" class="box"/>
  <text x="780" y="72" text-anchor="middle" class="head">API-first marketplaces</text>
  <rect x="660" y="90" width="240" height="60" class="api"/>
  <text x="780" y="110" text-anchor="middle" class="step">Replicate</text>
  <text x="780" y="128" text-anchor="middle" class="small">pay-per-prediction</text>
  <text x="780" y="144" text-anchor="middle" class="small">multimodal breadth default</text>
  <rect x="660" y="160" width="240" height="60" class="api"/>
  <text x="780" y="180" text-anchor="middle" class="step">DeepInfra</text>
  <text x="780" y="198" text-anchor="middle" class="small">aggressive per-token pricing</text>
  <text x="780" y="214" text-anchor="middle" class="small">hobbyist and prototyping</text>
  <rect x="660" y="230" width="240" height="60" class="api"/>
  <text x="780" y="250" text-anchor="middle" class="step">OpenRouter</text>
  <text x="780" y="268" text-anchor="middle" class="small">unified API over 100+ models</text>
  <text x="780" y="284" text-anchor="middle" class="small">single credit for many providers</text>
  <rect x="660" y="300" width="240" height="60" class="api"/>
  <text x="780" y="320" text-anchor="middle" class="step">Fal</text>
  <text x="780" y="338" text-anchor="middle" class="small">image / video focus</text>
  <text x="780" y="354" text-anchor="middle" class="small">serverless per-call</text>
  <text x="780" y="420" text-anchor="middle" class="caption">time-to-first-call optimized</text>
  <text x="780" y="436" text-anchor="middle" class="caption">cheapest for bursty and small-scale</text>

  <rect x="40" y="520" width="880" height="30" class="box"/>
  <text x="480" y="538" text-anchor="middle" class="step">rule: per-minute beats per-token above ~30% sustained utilization of one GPU</text>
</svg>
