<svg xmlns="http://www.w3.org/2000/svg" viewBox="0 0 880 540" font-family="Georgia, 'Times New Roman', serif">
  <defs>
    <marker id="arrow" viewBox="0 0 10 10" refX="9" refY="5" markerWidth="6" markerHeight="6" orient="auto">
      <path d="M0,0 L10,5 L0,10 z" fill="#1a1a1a"/>
    </marker>
    <style>
      .box { fill: #faf6ef; stroke: #1a1a1a; stroke-width: 1.5; }
      .hot { fill: #fff1d6; stroke: #c0392b; stroke-width: 1.5; }
      .cool { fill: #e6f4ea; stroke: #2e7d32; stroke-width: 1.5; }
      .cold { fill: #dfe9ff; stroke: #2c5ea9; stroke-width: 1.5; }
      .label { font-size: 13px; font-weight: 600; fill: #1a1a1a; }
      .content { font-size: 11px; font-family: 'Menlo', monospace; fill: #333; }
      .small { font-size: 10px; font-family: 'Menlo', monospace; fill: #555; }
      .title { font-size: 16px; font-weight: 700; fill: #1a1a1a; }
    </style>
  </defs>

  <text x="440" y="26" text-anchor="middle" class="title">Indirect prompt injection: attack surface and defense layers</text>

  <rect x="40" y="50" width="800" height="460" class="box"/>

  <!-- Untrusted content sources -->
  <rect x="60" y="80" width="200" height="120" class="hot"/>
  <text x="160" y="102" text-anchor="middle" class="label">out-of-trust content</text>
  <text x="76" y="128" class="small">• any third-party page</text>
  <text x="76" y="144" class="small">• user-generated posts</text>
  <text x="76" y="160" class="small">• search-engine snippets</text>
  <text x="76" y="176" class="small">• URL fragment / query</text>
  <text x="76" y="192" class="small">• prior memory entries</text>

  <!-- Agent -->
  <rect x="320" y="80" width="240" height="120" class="cool"/>
  <text x="440" y="102" text-anchor="middle" class="label">browser agent</text>
  <text x="336" y="128" class="small">read + reason + act loop</text>
  <text x="336" y="144" class="small">tool allowlist per task</text>
  <text x="336" y="160" class="small">scoped credentials only</text>
  <text x="336" y="176" class="small">session-isolated workspace</text>
  <text x="336" y="192" class="small">logs retained for audit</text>

  <!-- Consequential sinks -->
  <rect x="620" y="80" width="200" height="120" class="cold"/>
  <text x="720" y="102" text-anchor="middle" class="label">consequential sinks</text>
  <text x="636" y="128" class="small">• form submits</text>
  <text x="636" y="144" class="small">• backend tool calls</text>
  <text x="636" y="160" class="small">• memory writes</text>
  <text x="636" y="176" class="small">• file downloads</text>
  <text x="636" y="192" class="small">• credential use</text>

  <path d="M260 140 L320 140" stroke="#1a1a1a" stroke-width="1.5" marker-end="url(#arrow)"/>
  <path d="M560 140 L620 140" stroke="#1a1a1a" stroke-width="1.5" marker-end="url(#arrow)"/>

  <!-- Defense layers -->
  <text x="60" y="230" class="label">defense layers</text>

  <rect x="60" y="240" width="240" height="100" class="cool"/>
  <text x="180" y="262" text-anchor="middle" class="label">1. content sanitizer</text>
  <text x="76" y="284" class="small">strip known-bad patterns</text>
  <text x="76" y="300" class="small">"ignore previous", "post to"</text>
  <text x="76" y="316" class="small">catches visible-text injection</text>
  <text x="76" y="332" class="small">MISSES URL-fragment payloads</text>

  <rect x="320" y="240" width="240" height="100" class="cold"/>
  <text x="440" y="262" text-anchor="middle" class="label">2. R/W boundary</text>
  <text x="336" y="284" class="small">reads free; writes require</text>
  <text x="336" y="300" class="small">fresh approval when</text>
  <text x="336" y="316" class="small">content_origin = out-of-trust</text>
  <text x="336" y="332" class="small">catches fragment injection too</text>

  <rect x="580" y="240" width="240" height="100" class="hot"/>
  <text x="700" y="262" text-anchor="middle" class="label">3. tool allowlist + HITL</text>
  <text x="596" y="284" class="small">tool allowlist per task</text>
  <text x="596" y="300" class="small">HITL on irreversible writes</text>
  <text x="596" y="316" class="small">propose-then-commit (L15)</text>
  <text x="596" y="332" class="small">canary tokens on memory (L14)</text>

  <!-- Attack corpus -->
  <rect x="60" y="360" width="760" height="130" class="hot"/>
  <text x="440" y="384" text-anchor="middle" class="label">documented 2025–2026 attacks</text>
  <text x="80" y="406" class="content">Tainted Memories (Atlas CSRF, 2025) — attacker page binds instructions to the agent's memory</text>
  <text x="80" y="422" class="content">HashJack (Cato Networks, 2026) — payload hidden in URL fragment / query string</text>
  <text x="80" y="438" class="content">Perplexity Comet hijacks (2026) — one-click button rides follow-on payload</text>
  <text x="80" y="458" class="content">OpenAI preparedness head (2025): indirect prompt injection "is not a bug that can be fully patched"</text>
  <text x="80" y="478" class="small">defense-in-depth: sanitizer + R/W boundary + allowlist + HITL + canaries; any single layer insufficient</text>
</svg>
