<svg xmlns="http://www.w3.org/2000/svg" viewBox="0 0 880 480" font-family="Georgia, 'Times New Roman', serif">
  <defs>
    <marker id="arrow" viewBox="0 0 10 10" refX="9" refY="5" markerWidth="6" markerHeight="6" orient="auto">
      <path d="M0,0 L10,5 L0,10 z" fill="#1a1a1a"/>
    </marker>
    <style>
      .box { fill: #faf6ef; stroke: #1a1a1a; stroke-width: 1.5; }
      .hot { fill: #fff1d6; stroke: #c0392b; stroke-width: 1.5; }
      .label { font-size: 14px; font-weight: 600; fill: #1a1a1a; }
      .content { font-size: 12px; fill: #333; font-family: 'Menlo', monospace; }
      .caption { font-size: 11px; fill: #555; font-style: italic; }
      .title { font-size: 16px; font-weight: 700; fill: #1a1a1a; }
    </style>
  </defs>

  <text x="440" y="28" text-anchor="middle" class="title">conversational voice pipeline — every 20 ms frame</text>

  <!-- Pipeline chain -->
  <rect x="40" y="60" width="130" height="60" class="box"/>
  <text x="105" y="82" text-anchor="middle" class="label">mic → ring</text>
  <text x="105" y="102" text-anchor="middle" class="content">20 ms frames</text>
  <text x="105" y="115" text-anchor="middle" class="caption">16 kHz mono</text>

  <line x1="175" y1="90" x2="195" y2="90" stroke="#1a1a1a" stroke-width="1.5" marker-end="url(#arrow)"/>

  <rect x="200" y="60" width="110" height="60" class="hot"/>
  <text x="255" y="82" text-anchor="middle" class="label">VAD</text>
  <text x="255" y="102" text-anchor="middle" class="content">Silero 4.0</text>
  <text x="255" y="115" text-anchor="middle" class="caption">&lt; 1 ms</text>

  <line x1="315" y1="90" x2="335" y2="90" stroke="#1a1a1a" stroke-width="1.5" marker-end="url(#arrow)"/>

  <rect x="340" y="60" width="130" height="60" class="box"/>
  <text x="405" y="82" text-anchor="middle" class="label">streaming ASR</text>
  <text x="405" y="102" text-anchor="middle" class="content">Parakeet-CTC 0.6B</text>
  <text x="405" y="115" text-anchor="middle" class="caption">~150 ms</text>

  <line x1="475" y1="90" x2="495" y2="90" stroke="#1a1a1a" stroke-width="1.5" marker-end="url(#arrow)"/>

  <rect x="500" y="60" width="110" height="60" class="hot"/>
  <text x="555" y="82" text-anchor="middle" class="label">LLM</text>
  <text x="555" y="102" text-anchor="middle" class="content">first-token</text>
  <text x="555" y="115" text-anchor="middle" class="caption">~100 ms</text>

  <line x1="615" y1="90" x2="635" y2="90" stroke="#1a1a1a" stroke-width="1.5" marker-end="url(#arrow)"/>

  <rect x="640" y="60" width="120" height="60" class="box"/>
  <text x="700" y="82" text-anchor="middle" class="label">streaming TTS</text>
  <text x="700" y="102" text-anchor="middle" class="content">Kokoro / EL v2.5</text>
  <text x="700" y="115" text-anchor="middle" class="caption">~100 ms</text>

  <line x1="765" y1="90" x2="785" y2="90" stroke="#1a1a1a" stroke-width="1.5" marker-end="url(#arrow)"/>

  <rect x="790" y="60" width="65" height="60" class="hot"/>
  <text x="822" y="82" text-anchor="middle" class="label">speaker</text>
  <text x="822" y="102" text-anchor="middle" class="content">opus</text>
  <text x="822" y="115" text-anchor="middle" class="caption">~20 ms</text>

  <!-- Barge-in detection arrow -->
  <path d="M255,125 Q255,180 540,180 Q620,180 700,125" fill="none" stroke="#c0392b" stroke-width="1.5" stroke-dasharray="5,4" marker-end="url(#arrow)"/>
  <text x="470" y="175" text-anchor="middle" class="caption" fill="#c0392b">barge-in: VAD cancels LLM + TTS mid-stream</text>

  <!-- Latency totals -->
  <rect x="40" y="210" width="800" height="120" class="hot"/>
  <text x="440" y="234" text-anchor="middle" class="label">2026 end-to-end latency leaderboard</text>
  <line x1="80" y1="290" x2="820" y2="290" stroke="#1a1a1a" stroke-width="1"/>
  <rect x="80" y="270" width="32" height="20" fill="#c0392b"/>
  <text x="96" y="285" text-anchor="middle" class="content" font-size="10" fill="white">200</text>
  <text x="96" y="310" text-anchor="middle" class="caption" font-size="10">Moshi</text>
  <rect x="160" y="270" width="53" height="20" fill="#d4a74c"/>
  <text x="186" y="285" text-anchor="middle" class="content" font-size="10">320</text>
  <text x="186" y="310" text-anchor="middle" class="caption" font-size="10">GPT-4o realtime</text>
  <rect x="260" y="270" width="78" height="20" fill="#e6c87a"/>
  <text x="300" y="285" text-anchor="middle" class="content" font-size="10">500</text>
  <text x="300" y="310" text-anchor="middle" class="caption" font-size="10">LiveKit cascade</text>
  <rect x="380" y="270" width="200" height="20" fill="#eed9a8"/>
  <text x="480" y="285" text-anchor="middle" class="content" font-size="10">1500</text>
  <text x="480" y="310" text-anchor="middle" class="caption" font-size="10">batch ASR + chat + TTS</text>
  <rect x="620" y="270" width="200" height="20" fill="#faf6ef" stroke="#1a1a1a"/>
  <text x="720" y="285" text-anchor="middle" class="content" font-size="10">2500+</text>
  <text x="720" y="310" text-anchor="middle" class="caption" font-size="10">2022 cascaded</text>

  <!-- Key rules -->
  <rect x="40" y="345" width="800" height="120" class="box"/>
  <text x="440" y="368" text-anchor="middle" class="label">rules of thumb</text>
  <text x="60"  y="394" class="content">20 ms frames</text>    <text x="220" y="394" class="caption">320 samples @ 16 kHz; everything downstream keeps the cadence</text>
  <text x="60"  y="414" class="content">ring buffer</text>     <text x="220" y="414" class="caption">2 s = 32 000 samples; absorbs jitter without adding floor latency</text>
  <text x="60"  y="434" class="content">AEC mandatory</text>   <text x="220" y="434" class="caption">without it, TTS output loops back into ASR and self-triggers</text>
  <text x="60"  y="454" class="content">warm the TTS</text>    <text x="220" y="454" class="caption">prime vocoder before first turn or users feel the 150 ms warm-up</text>
</svg>
