<svg xmlns="http://www.w3.org/2000/svg" viewBox="0 0 960 520" font-family="Georgia, 'Times New Roman', serif">
  <defs>
    <style>
      .box { fill: #faf6ef; stroke: #1a1a1a; stroke-width: 1.5; }
      .hot { fill: #fff1d6; stroke: #c0392b; stroke-width: 1.5; }
      .cool { fill: #e6f4ea; stroke: #2e7d32; stroke-width: 1.5; }
      .cold { fill: #dfe9ff; stroke: #2c5ea9; stroke-width: 1.5; }
      .axis { stroke: #1a1a1a; stroke-width: 1.5; fill: none; }
      .bar { stroke: #1a1a1a; stroke-width: 1.0; }
      .step { font-size: 12px; font-family: 'Menlo', monospace; fill: #222; }
      .small { font-size: 10px; font-family: 'Menlo', monospace; fill: #555; }
      .caption { font-size: 11px; fill: #555; font-style: italic; }
      .title { font-size: 16px; font-weight: 700; fill: #1a1a1a; }
      .head { font-size: 12px; font-weight: 700; fill: #1a1a1a; }
    </style>
  </defs>

  <text x="480" y="24" text-anchor="middle" class="title">Scalable oversight: PGR and the three mechanisms</text>

  <rect x="40" y="60" width="420" height="330" class="box"/>
  <text x="250" y="82" text-anchor="middle" class="head">Performance Gap Recovered (PGR)</text>
  <line x1="100" y1="360" x2="440" y2="360" class="axis"/>
  <line x1="100" y1="360" x2="100" y2="110" class="axis"/>
  <text x="250" y="390" text-anchor="middle" class="small">weak accuracy -&gt;</text>
  <text x="60" y="235" text-anchor="middle" class="small" transform="rotate(-90 60 235)">PGR</text>

  <rect x="120" y="260" width="60" height="100" class="cool"/>
  <text x="150" y="375" text-anchor="middle" class="small">0.60</text>
  <text x="150" y="255" text-anchor="middle" class="small">0.35</text>
  <rect x="200" y="220" width="60" height="140" class="cool"/>
  <text x="230" y="375" text-anchor="middle" class="small">0.70</text>
  <text x="230" y="215" text-anchor="middle" class="small">0.55</text>
  <rect x="280" y="190" width="60" height="170" class="cool"/>
  <text x="310" y="375" text-anchor="middle" class="small">0.80</text>
  <text x="310" y="185" text-anchor="middle" class="small">0.70</text>
  <rect x="360" y="160" width="60" height="200" class="cool"/>
  <text x="390" y="375" text-anchor="middle" class="small">0.90</text>
  <text x="390" y="155" text-anchor="middle" class="small">0.83</text>

  <rect x="480" y="60" width="440" height="220" class="box"/>
  <text x="700" y="82" text-anchor="middle" class="head">three scalable-oversight mechanisms</text>
  <rect x="500" y="100" width="400" height="50" class="cold"/>
  <text x="700" y="122" text-anchor="middle" class="step">debate (Irving 2018)</text>
  <text x="700" y="140" text-anchor="middle" class="small">two U's argue; weak judge picks. mixed 2024 evidence.</text>
  <rect x="500" y="160" width="400" height="50" class="cold"/>
  <text x="700" y="182" text-anchor="middle" class="step">recursive reward modeling (Leike 2018)</text>
  <text x="700" y="200" text-anchor="middle" class="small">U helps train RM for U+1. overseer tracks U.</text>
  <rect x="500" y="220" width="400" height="50" class="cold"/>
  <text x="700" y="242" text-anchor="middle" class="step">task decomposition (Christiano 2018)</text>
  <text x="700" y="260" text-anchor="middle" class="small">break hard task into checkable sub-tasks.</text>

  <rect x="480" y="300" width="440" height="90" class="box"/>
  <text x="700" y="325" text-anchor="middle" class="head">complementarity with W2SG</text>
  <text x="500" y="350" class="small">scalable oversight: improves label quality.</text>
  <text x="500" y="368" class="small">W2SG: closes gap from whatever labels.</text>
  <text x="500" y="386" class="small">combined (Lang 2025): better PGR on NLP tasks.</text>

  <rect x="40" y="410" width="880" height="80" class="box"/>
  <text x="60" y="435" class="small">PGR is a measurable, not a solution. Burns et al. 2023 are explicit: the weak-strong gap they study is capability-shaped.</text>
  <text x="60" y="455" class="small">superalignment question -- can humans oversee superhuman models? -- depends on whether the gap transfers to alignment-shaped settings.</text>
  <text x="60" y="475" class="small">organizational: OpenAI Superalignment dissolved 05/2024; agenda continues at Anthropic, MATS, Redwood, Apollo, METR.</text>
</svg>
