<svg xmlns="http://www.w3.org/2000/svg" viewBox="0 0 960 560" font-family="Georgia, 'Times New Roman', serif">
  <defs>
    <style>
      .box { fill: #faf6ef; stroke: #1a1a1a; stroke-width: 1.5; }
      .hot { fill: #fff1d6; stroke: #c0392b; stroke-width: 1.5; }
      .cool { fill: #e6f4ea; stroke: #2e7d32; stroke-width: 1.5; }
      .cold { fill: #dfe9ff; stroke: #2c5ea9; stroke-width: 1.5; }
      .dsk { fill: #e9e6ff; stroke: #5a4fcf; stroke-width: 1.5; }
      .step { font-size: 12px; font-family: 'Menlo', monospace; fill: #222; }
      .small { font-size: 10px; font-family: 'Menlo', monospace; fill: #555; }
      .caption { font-size: 11px; fill: #555; font-style: italic; }
      .title { font-size: 16px; font-weight: 700; fill: #1a1a1a; }
      .head { font-size: 12px; font-weight: 700; fill: #1a1a1a; }
      .edge { stroke: #555; stroke-width: 1.2; fill: none; }
    </style>
  </defs>

  <text x="480" y="24" text-anchor="middle" class="title">multi-agent factory — architect / coders / reviewer / tester</text>

  <rect x="380" y="50" width="200" height="44" class="dsk"/>
  <text x="480" y="70" text-anchor="middle" class="step">Architect (Opus 4.7)</text>
  <text x="480" y="86" text-anchor="middle" class="small">plan + subtasks + interfaces</text>

  <rect x="40" y="130" width="180" height="70" class="cool"/>
  <text x="130" y="150" text-anchor="middle" class="step">Coder A (Sonnet 4.7)</text>
  <text x="130" y="168" text-anchor="middle" class="small">worktree A + Daytona</text>
  <text x="130" y="186" text-anchor="middle" class="small">subtask: parser</text>

  <rect x="240" y="130" width="180" height="70" class="cool"/>
  <text x="330" y="150" text-anchor="middle" class="step">Coder B</text>
  <text x="330" y="168" text-anchor="middle" class="small">worktree B</text>
  <text x="330" y="186" text-anchor="middle" class="small">subtask: cache</text>

  <rect x="440" y="130" width="180" height="70" class="cool"/>
  <text x="530" y="150" text-anchor="middle" class="step">Coder C</text>
  <text x="530" y="168" text-anchor="middle" class="small">worktree C</text>
  <text x="530" y="186" text-anchor="middle" class="small">subtask: api</text>

  <rect x="640" y="130" width="180" height="70" class="cool"/>
  <text x="730" y="150" text-anchor="middle" class="step">Coder D</text>
  <text x="730" y="168" text-anchor="middle" class="small">worktree D</text>
  <text x="730" y="186" text-anchor="middle" class="small">subtask: migration</text>

  <path d="M480,94 L130,130" class="edge"/>
  <path d="M480,94 L330,130" class="edge"/>
  <path d="M480,94 L530,130" class="edge"/>
  <path d="M480,94 L730,130" class="edge"/>

  <rect x="340" y="240" width="280" height="54" class="cold"/>
  <text x="480" y="262" text-anchor="middle" class="step">merge coordinator</text>
  <text x="480" y="280" text-anchor="middle" class="small">3-way merge + LLM conflict resolver</text>

  <path d="M130,200 L440,240" class="edge"/>
  <path d="M330,200 L460,240" class="edge"/>
  <path d="M530,200 L500,240" class="edge"/>
  <path d="M730,200 L540,240" class="edge"/>

  <rect x="340" y="320" width="280" height="54" class="hot"/>
  <text x="480" y="342" text-anchor="middle" class="step">Reviewer (GPT-5.4)</text>
  <text x="480" y="360" text-anchor="middle" class="small">cannot approve diffs it authored</text>
  <path d="M480,294 L480,320" class="edge"/>

  <rect x="340" y="400" width="280" height="54" class="dsk"/>
  <text x="480" y="422" text-anchor="middle" class="step">Tester (Gemini 2.5 Pro)</text>
  <text x="480" y="440" text-anchor="middle" class="small">run suite in clean sandbox</text>
  <path d="M480,374 L480,400" class="edge"/>

  <rect x="340" y="480" width="280" height="40" class="cool"/>
  <text x="480" y="504" text-anchor="middle" class="step">PR open</text>
  <path d="M480,454 L480,480" class="edge"/>

  <rect x="40" y="300" width="260" height="240" class="box"/>
  <text x="170" y="322" text-anchor="middle" class="head">metrics</text>
  <text x="170" y="344" text-anchor="middle" class="small">SWE-bench Pro pass@1</text>
  <text x="170" y="362" text-anchor="middle" class="small">wall-clock vs single-agent</text>
  <text x="170" y="380" text-anchor="middle" class="small">false-approval on bug probe</text>
  <text x="170" y="398" text-anchor="middle" class="small">token amplification ratio</text>
  <text x="170" y="416" text-anchor="middle" class="small">merge conflict rate</text>
  <text x="170" y="440" text-anchor="middle" class="small">target:</text>
  <text x="170" y="456" text-anchor="middle" class="small">pass@1 &gt; single-agent</text>
  <text x="170" y="472" text-anchor="middle" class="small">speedup 2-3x on parallel tasks</text>
  <text x="170" y="490" text-anchor="middle" class="small">token amp &lt; 2x</text>
  <text x="170" y="508" text-anchor="middle" class="small">false-approve &lt; 5%</text>
  <text x="170" y="528" text-anchor="middle" class="caption">SWE-AF / MetaGPT / AutoGen shape</text>

  <rect x="660" y="300" width="260" height="240" class="box"/>
  <text x="790" y="322" text-anchor="middle" class="head">handoff accounting</text>
  <text x="790" y="344" text-anchor="middle" class="small">every role boundary = span</text>
  <text x="790" y="362" text-anchor="middle" class="small">A2A-typed messages</text>
  <text x="790" y="380" text-anchor="middle" class="small">file-backed task board</text>
  <text x="790" y="398" text-anchor="middle" class="small">Langfuse role tag + token</text>
  <text x="790" y="422" text-anchor="middle" class="small">post-mortem histograms:</text>
  <text x="790" y="438" text-anchor="middle" class="small">plan vague / merge conflict /</text>
  <text x="790" y="454" text-anchor="middle" class="small">reviewer false-approve /</text>
  <text x="790" y="470" text-anchor="middle" class="small">tester flake</text>
  <text x="790" y="496" text-anchor="middle" class="small">shipped with every failed run</text>
  <text x="790" y="516" text-anchor="middle" class="caption">handoffs are the failure surface</text>
</svg>
